<svg width="18000" height="12000" viewBox="0 0 18000 12000" fill="none" xmlns="http://www.w3.org/2000/svg">
<rect width="18000" height="12000" fill="black"/>
<path d="M11374.5 6497.93C10966.1 7402.18 10056.3 8031.44 8999.59 8031.44C7942.87 8031.44 7033.13 7402.18 6624.63 6497.93H6649.41C7056.39 7389.37 7955.64 8008.89 8999.59 8008.89C10043.5 8008.89 10942.8 7389.37 11349.8 6497.93H11374.5Z" fill="white"/>
<path d="M11057.8 6497.93C10670.1 7240.43 9892.93 7747.29 8997.34 7747.29C8101.74 7747.29 7324.53 7240.43 6936.9 6497.93H6962.38C7348.06 7227.54 8114.63 7724.74 8997.34 7724.74C9880.04 7724.74 10646.6 7227.54 11032.3 6497.93H11057.8Z" fill="white"/>
<path d="M10737.1 6497.93C10377.6 7079.87 9733.88 7467.65 8999.59 7467.65C8265.3 7467.65 7621.58 7079.87 7262.05 6497.93H7288.62C7645.56 7066.85 8278.41 7445.1 8999.59 7445.1C9720.78 7445.1 10353.6 7066.85 10710.6 6497.93H10737.1Z" fill="white"/>
<path d="M10391 6497.93C10069.3 6914.9 9564.69 7183.5 8997.34 7183.5C8429.99 7183.5 7925.37 6914.9 7603.72 6497.93H7632.31C7950.27 6901.69 8443.53 7160.95 8997.34 7160.95C9551.14 7160.95 10044.4 6901.69 10362.4 6497.93H10391Z" fill="white"/>
<path d="M10007.4 6497.93C9743 6746.83 9386.85 6899.35 8995.08 6899.35C8603.31 6899.35 8247.16 6746.83 7982.77 6497.93H8015.96C8274.4 6733.3 8617.98 6876.8 8995.08 6876.8C9372.18 6876.8 9715.76 6733.3 9974.2 6497.93H10007.4Z" fill="white"/>
<path d="M9523.56 6497.93C9364.78 6575.91 9186.17 6619.7 8997.34 6619.7C8808.5 6619.7 8629.89 6575.91 8471.11 6497.93H8524.51C8669.14 6561.73 8829.1 6597.15 8997.34 6597.15C9165.57 6597.15 9325.53 6561.73 9470.17 6497.93H9523.56Z" fill="white"/>
<path d="M8999.59 2822C10056.3 2822 10966.1 3451.27 11374.5 4355.51H11349.8C10942.8 3464.07 10043.5 2844.55 8999.59 2844.55C7955.64 2844.55 7056.38 3464.07 6649.41 4355.51H6624.64C7033.13 3451.27 7942.87 2822 8999.59 2822Z" fill="white"/>
<path d="M8997.34 3101.64C9894.74 3101.64 10673.3 3610.55 11060.1 4355.51H11034.7C10649.8 3623.44 9881.86 3124.19 8997.34 3124.19C8112.82 3124.19 7344.9 3623.44 6960 4355.51H6934.55C7321.38 3610.55 8099.93 3101.64 8997.34 3101.64Z" fill="white"/>
<path d="M8999.59 3385.79C9733.88 3385.79 10377.6 3773.57 10737.1 4355.51H10710.6C10353.6 3786.59 9720.78 3408.34 8999.59 3408.34C8278.41 3408.34 7645.56 3786.59 7288.62 4355.51H7262.05C7621.58 3773.57 8265.3 3385.79 8999.59 3385.79Z" fill="white"/>
<path d="M8997.34 3665.43C9566.73 3665.43 10072.9 3935.97 10394.4 4355.51H10365.9C10048.1 3949.17 9553.2 3687.98 8997.34 3687.98C8441.47 3687.98 7946.6 3949.17 7628.77 4355.51H7600.25C7921.74 3935.97 8427.94 3665.43 8997.34 3665.43Z" fill="white"/>
<path d="M8995.08 3945.08C9391.56 3945.08 9751.56 4101.28 10016.9 4355.51H9984.01C9724.49 4114.8 9376.97 3967.63 8995.08 3967.63C8613.19 3967.63 8265.67 4114.8 8006.15 4355.51H7973.27C8238.6 4101.28 8598.6 3945.08 8995.08 3945.08Z" fill="white"/>
<path d="M8997.34 4229.22C9189.79 4229.22 9371.61 4274.71 9532.65 4355.51H9480.26C9332.99 4288.88 9169.5 4251.78 8997.34 4251.78C8825.18 4251.78 8661.68 4288.87 8514.41 4355.51H8462.02C8623.06 4274.71 8804.89 4229.22 8997.34 4229.22Z" fill="white"/>
<path d="M7414.33 6273.25C7291.45 6273.25 7177.35 6252.5 7072.03 6211.01C6968.3 6167.92 6877.34 6108.08 6799.15 6031.48C6722.55 5954.88 6662.7 5865.52 6619.62 5763.39C6576.53 5661.26 6554.99 5549.55 6554.99 5428.27C6554.99 5306.99 6576.53 5195.28 6619.62 5093.15C6662.7 4991.02 6722.55 4901.65 6799.15 4825.05C6877.34 4748.45 6968.3 4689.41 7072.03 4647.92C7177.35 4604.83 7291.45 4583.29 7414.33 4583.29C7537.21 4583.29 7650.51 4604.83 7754.24 4647.92C7859.56 4689.41 7950.52 4748.45 8027.12 4825.05C8105.31 4901.65 8165.95 4991.02 8209.04 5093.15C8252.13 5195.28 8273.67 5306.99 8273.67 5428.27C8273.67 5549.55 8252.13 5661.26 8209.04 5763.39C8165.95 5865.52 8105.31 5954.88 8027.12 6031.48C7950.52 6108.08 7859.56 6167.92 7754.24 6211.01C7650.51 6252.5 7537.21 6273.25 7414.33 6273.25ZM7414.33 6227.77C7529.23 6227.77 7636.15 6207.82 7735.09 6167.92C7834.03 6128.03 7920.2 6072.18 7993.61 6000.36C8067.01 5926.96 8123.66 5842.38 8163.56 5746.63C8205.05 5649.29 8225.8 5543.17 8225.8 5428.27C8225.8 5313.37 8205.05 5208.05 8163.56 5112.3C8123.66 5014.95 8067.01 4930.38 7993.61 4858.57C7920.2 4785.16 7834.03 4728.51 7735.09 4688.61C7636.15 4648.72 7529.23 4628.77 7414.33 4628.77C7299.43 4628.77 7192.51 4648.72 7093.57 4688.61C6994.63 4728.51 6908.46 4785.16 6835.05 4858.57C6761.64 4930.38 6704.2 5014.95 6662.7 5112.3C6622.81 5208.05 6602.86 5313.37 6602.86 5428.27C6602.86 5543.17 6622.81 5649.29 6662.7 5746.63C6704.2 5842.38 6761.64 5926.96 6835.05 6000.36C6908.46 6072.18 6994.63 6128.03 7093.57 6167.92C7192.51 6207.82 7299.43 6227.77 7414.33 6227.77Z" fill="white"/>
<path d="M8733.11 6266.07V4590.47H8780.99V6266.07H8733.11Z" fill="white"/>
<path d="M9418.03 6266.07V4590.47H10052.4C10229.5 4590.47 10384.3 4627.17 10516.7 4700.58C10649.2 4772.39 10752.1 4871.33 10825.5 4997.4C10898.9 5123.47 10935.6 5267.09 10935.6 5428.27C10935.6 5589.44 10898.9 5733.07 10825.5 5859.14C10752.1 5985.2 10649.2 6084.94 10516.7 6158.35C10384.3 6230.16 10229.5 6266.07 10052.4 6266.07H9418.03ZM9465.9 6220.59H10047.6C10218.3 6220.59 10366.7 6186.28 10492.8 6117.66C10618.9 6049.04 10716.2 5955.68 10784.8 5837.59C10853.5 5717.91 10887.8 5581.47 10887.8 5428.27C10887.8 5275.07 10853.5 5139.43 10784.8 5021.34C10716.2 4901.65 10618.9 4807.5 10492.8 4738.88C10366.7 4670.26 10218.3 4635.95 10047.6 4635.95H9465.9V6220.59Z" fill="white"/>
<path d="M11395.6 6266.07V4590.47H11443.5V6266.07H11395.6Z" fill="white"/>
<path d="M9389.22 8336.83C9751.72 8336.83 10075.5 8512.07 10393.6 8644.05C10681.4 8763.46 11063.1 8739.8 11318.1 8563.99C11191.9 8722.27 11023.1 8819.71 10848.9 8885.87C10525 9015.11 10147.1 8915.93 9871.55 8739.81C9673.01 8612.9 9502.83 8433.03 9266.54 8433.03C9224.67 8433.03 9182.55 8437.74 9140.31 8446.61C9472.14 8579.56 9773.87 8813.72 10009.4 9038.71C9966.03 9088.24 9909.95 9134.51 9857.1 9177.17C9594.52 8905.81 9296.81 8611.89 9000 8490.47C8703.19 8611.89 8405.48 8905.81 8142.9 9177.17C8090.05 9134.51 8033.97 9088.24 7990.64 9038.71C8226.13 8813.73 8527.85 8579.56 8859.68 8446.61C8817.44 8437.74 8775.33 8433.03 8733.46 8433.03C8497.17 8433.03 8326.99 8612.9 8128.45 8739.81C7852.91 8915.93 7474.95 9015.11 7151.07 8885.87C6976.87 8819.71 6808.08 8722.27 6681.94 8563.99C6936.86 8739.8 7318.61 8763.46 7606.41 8644.05C7924.52 8512.07 8248.28 8336.83 8610.78 8336.83C8742.77 8336.83 8873.13 8358.92 9000 8397.26C9126.87 8358.92 9257.23 8336.83 9389.22 8336.83Z" fill="white"/>
<path d="M6841.38 7463.09C7097.56 7633.39 7309.78 7866.55 7549.33 8085.65C7716.04 8238.14 7923.76 8303.39 8139.19 8347.23C8087.43 8366.14 8019.7 8361.68 7963.95 8375.5C7577 8471.5 7147.98 8623.03 6736.24 8487.16C6470.51 8399.47 6194.01 8191.8 6059.74 7928.58C6413.56 8331.34 6990.61 8201.77 7462.95 8302.36C7528.69 8316.36 7590.43 8338.18 7661 8327.36C7604.86 8291.74 7530.41 8287.75 7465.55 8263.31C7099.09 8125.25 7041.95 7733.02 6841.38 7463.09Z" fill="white"/>
<path d="M11158.6 7463.09C10958.1 7733.02 10900.9 8125.25 10534.4 8263.31C10469.6 8287.75 10395.1 8291.74 10339 8327.36C10409.6 8338.18 10471.3 8316.36 10537.1 8302.36C11009.4 8201.77 11586.4 8331.34 11940.3 7928.58C11806 8191.8 11529.5 8399.47 11263.8 8487.16C10852 8623.03 10423 8471.5 10036 8375.5C9980.3 8361.68 9912.57 8366.14 9860.81 8347.23C10076.2 8303.39 10284 8238.14 10450.7 8085.65C10690.2 7866.55 10902.4 7633.39 11158.6 7463.09Z" fill="white"/>
<path d="M6310.94 6671.84C6458.55 6848.59 6596.99 7030.58 6681.99 7232.95C6818.76 7558.61 6865.23 7930.13 7172 8177.59C6840 8068.05 6456.98 8089.86 6158 7894.04C5843.74 7688.19 5552.48 7363.28 5492.61 6996.44C5713.3 7496.1 6267.77 7535.24 6636.45 7841.76C6706.55 7900.05 6776.07 7953.69 6853.07 7989.59L6857.04 7985.57C6771.97 7908.6 6679.9 7816.88 6614 7721.14C6403.28 7414.95 6473.42 6996.45 6310.94 6671.84Z" fill="white"/>
<path d="M11689.1 6671.84C11526.6 6996.45 11596.7 7414.95 11386 7721.14C11320.1 7816.88 11228 7908.6 11143 7985.57L11146.9 7989.59C11223.9 7953.69 11293.5 7900.05 11363.6 7841.76C11732.2 7535.24 12286.7 7496.1 12507.4 6996.44C12447.5 7363.28 12156.3 7688.19 11842 7894.04C11543 8089.86 11160 8068.05 10828 8177.59C11134.8 7930.13 11181.2 7558.61 11318 7232.95C11403 7030.58 11541.4 6848.59 11689.1 6671.84Z" fill="white"/>
<path d="M6069.12 5918.14C6261.74 6333.91 6199.61 6853.69 6310.94 7303.24C6335.57 7402.7 6396.13 7489.74 6433.45 7583.94C6244.19 7439.96 5996.16 7312.16 5788.41 7148.41C5587.51 6990.05 5413.11 6804.44 5322.47 6562.92C5257.16 6388.89 5240.16 6181.3 5256.2 5985.53C5288.11 6425.75 5756.77 6660.91 5980.26 7022.79C6027.98 7100.08 6077.1 7179.85 6146.42 7242.26C6135.61 7195.41 6097.05 7153.88 6075.81 7107.9C6004.15 6952.62 5971.7 6772.94 5989.59 6588.17C6011.37 6363.38 6105.09 6154.62 6069.12 5918.14Z" fill="white"/>
<path d="M11930.9 5918.14C11894.9 6154.62 11988.6 6363.38 12010.4 6588.17C12028.3 6772.94 11995.8 6952.62 11924.2 7107.9C11903 7153.88 11864.4 7195.41 11853.6 7242.26C11922.9 7179.85 11972 7100.08 12019.7 7022.79C12243.2 6660.91 12711.9 6425.75 12743.8 5985.53C12759.8 6181.3 12742.8 6388.89 12677.5 6562.92C12586.9 6804.44 12412.5 6990.05 12211.6 7148.41C12003.8 7312.15 11755.8 7439.96 11566.6 7583.94C11603.9 7489.74 11664.4 7402.7 11689.1 7303.24C11800.4 6853.69 11738.3 6333.91 11930.9 5918.14Z" fill="white"/>
<path d="M5351.94 4884.34C5271.01 5299.61 5547.28 5599.59 5641.6 5958.87C5677.15 6094.26 5689.31 6238.13 5744.07 6364.48C5749.17 6367.21 5753.59 6361.9 5756.75 6357.82C5620.45 5975.45 5820.25 5622.06 6014.9 5320.67C6066.05 5241.45 6090.7 5149.2 6114.58 5055.94C6135.62 5229.03 6098.78 5429.41 6066.75 5608.02C6025.52 5837.98 5946.93 6053.51 5884.47 6275.38C5843.34 6413.99 5854.19 6570.42 5875.3 6715.64L5855.44 6699.81C5710.53 6432.27 5424.6 6223.27 5338.26 5931.27C5269.25 5697.91 5221.52 5428.3 5269.3 5174.41C5291.9 5076.16 5309.18 4974.46 5351.94 4884.34Z" fill="white"/>
<path d="M12648.1 4884.34C12690.8 4974.46 12708.1 5076.16 12730.7 5174.41C12778.5 5428.3 12730.7 5697.91 12661.7 5931.27C12575.4 6223.27 12289.5 6432.27 12144.6 6699.81L12124.7 6715.64C12145.8 6570.42 12156.7 6413.99 12115.5 6275.38C12053.1 6053.51 11974.5 5837.98 11933.2 5608.02C11901.2 5429.41 11864.4 5229.03 11885.4 5055.94C11909.3 5149.2 11934 5241.45 11985.1 5320.67C12179.8 5622.06 12379.5 5975.45 12243.3 6357.82C12246.4 6361.9 12250.8 6367.21 12255.9 6364.48C12310.7 6238.13 12322.8 6094.26 12358.4 5958.87C12452.7 5599.59 12729 5299.61 12648.1 4884.34Z" fill="white"/>
<path d="M5728.05 3923.04C5733.37 3920.39 5737.17 3915.05 5744.04 3916.29C5541.99 4223.66 5725.89 4611.64 5699.93 4960.25L5673.27 5318.06C5677.23 5320.67 5677.23 5331.41 5686.62 5327.3C5698.56 5287.41 5702.18 5244.98 5709.13 5203.78C5757.78 4915.34 6011.06 4714.56 6225.88 4510.92C6275.01 4464.4 6313.24 4407.59 6337.85 4344.56C6319.99 4488.25 6279.9 4635.55 6215.4 4766.13C6050.06 5100.87 5730.71 5371.07 5673.27 5751.47C5645.43 5386.9 5422.14 5115.87 5422.14 4727.69C5422.14 4413.43 5544.5 4157.08 5728.05 3923.04Z" fill="white"/>
<path d="M12256 3916.29C12262.8 3915.05 12266.6 3920.39 12272 3923.04C12455.5 4157.08 12577.9 4413.43 12577.9 4727.69C12577.9 5115.87 12354.6 5386.9 12326.7 5751.47C12269.3 5371.07 11949.9 5100.87 11784.6 4766.13C11720.1 4635.55 11680 4488.25 11662.2 4344.56C11686.8 4407.59 11725 4464.4 11774.1 4510.92C11988.9 4714.56 12242.2 4915.34 12290.9 5203.78C12297.8 5244.98 12301.4 5287.41 12313.4 5327.3C12322.8 5331.41 12322.8 5320.67 12326.7 5318.06L12300.1 4960.25C12274.1 4611.64 12458 4223.66 12256 3916.29Z" fill="white"/>
<path d="M6305.8 3432.5C6042.55 3613.51 6056.84 3937.03 5976.24 4207.54C5946.77 4306.45 5903.45 4399.13 5880.42 4501.35L5887.09 4506.66C5930.88 4391.1 6006.04 4280.01 6103.95 4187.64C6289.11 4012.95 6567.49 3907.2 6659.12 3651.66C6654.93 4006.77 6352.23 4276.71 6075.77 4485.53C5951.75 4579.21 5846.39 4704.97 5782.08 4836.8C5792.83 4738.68 5797.7 4657.05 5788.95 4561.28C5760.57 4251.07 5742.15 3903.32 5954.75 3667.62C6056.35 3554.96 6170.23 3467.2 6305.8 3432.5Z" fill="white"/>
<path d="M11694.2 3432.5C11829.8 3467.2 11943.7 3554.96 12045.3 3667.62C12257.8 3903.32 12239.4 4251.07 12211.1 4561.28C12202.3 4657.05 12207.2 4738.68 12217.9 4836.8C12153.6 4704.97 12048.2 4579.21 11924.2 4485.53C11647.8 4276.71 11345.1 4006.77 11340.9 3651.66C11432.5 3907.2 11710.9 4012.95 11896.1 4187.64C11994 4280.01 12069.1 4391.1 12112.9 4506.66L12119.6 4501.35C12096.5 4399.13 12053.2 4306.45 12023.8 4207.54C11943.2 3937.03 11957.5 3613.51 11694.2 3432.5Z" fill="white"/>
<path d="M7023.28 3070.58C6827.91 3242.02 6697.55 3462.69 6547.44 3661.06C6422.62 3826.05 6251.32 3928.27 6104.01 4066.71C6183.52 3901.74 6198.21 3712.71 6299.19 3553.11C6471.87 3280.19 6757.28 3174.27 7023.28 3070.58Z" fill="white"/>
<path d="M10976.7 3070.58C11242.7 3174.27 11528.1 3280.19 11700.8 3553.11C11801.8 3712.71 11816.5 3901.74 11896 4066.71C11748.7 3928.27 11577.4 3826.05 11452.6 3661.06C11302.4 3462.69 11172.1 3242.02 10976.7 3070.58Z" fill="white"/>
</svg>
